<svg width="124" height="127" viewBox="0 0 124 127" fill="none" xmlns="http://www.w3.org/2000/svg">
<circle cx="62" cy="65" r="62" fill="#FFF8E4"/>
<path d="M84.7618 86.5647H70.1215C69.3458 86.5647 68.6018 86.2645 68.0527 85.73C67.5035 85.1955 67.1942 84.4703 67.1924 83.7135V76.6847C67.1924 75.1135 68.5061 73.8367 70.1215 73.8367H84.7618C86.3739 73.8367 87.6842 75.1135 87.6842 76.6847V83.7135C87.6842 85.2863 86.3739 86.5647 84.7618 86.5647ZM70.1215 75.2623C69.7339 75.2619 69.362 75.4114 69.0872 75.678C68.8123 75.9446 68.6571 76.3066 68.6553 76.6847V83.7135C68.6553 84.4991 69.313 85.1391 70.1215 85.1391H84.7618C85.567 85.1391 86.223 84.4991 86.223 83.7135V76.6847C86.223 75.9007 85.567 75.2623 84.7618 75.2623H70.1215V75.2623Z" fill="#7EAF3B"/>
<path d="M90.3755 92.5396H36.7245C36.2929 92.5391 35.8791 92.3716 35.5741 92.0737C35.269 91.7757 35.0977 91.3719 35.0977 90.9508V43.698C35.0977 42.8244 35.8275 42.1124 36.7245 42.1124H46.9319C47.1259 42.1124 47.3119 42.1875 47.4491 42.3214C47.5863 42.4552 47.6633 42.6367 47.6633 42.826C47.6633 43.0152 47.5863 43.1967 47.4491 43.3306C47.3119 43.4644 47.1259 43.5396 46.9319 43.5396H36.7245C36.6813 43.5396 36.6399 43.5562 36.6091 43.5859C36.5784 43.6155 36.561 43.6558 36.5605 43.698V90.9524C36.5603 90.9735 36.5644 90.9945 36.5725 91.0141C36.5807 91.0337 36.5927 91.0515 36.608 91.0665C36.6232 91.0816 36.6414 91.0935 36.6614 91.1016C36.6814 91.1098 36.7029 91.114 36.7245 91.114H90.3755C90.3972 91.1142 90.4186 91.1101 90.4387 91.1021C90.4587 91.094 90.4768 91.082 90.492 91.0669C90.5072 91.0518 90.519 91.0339 90.5269 91.0142C90.5348 90.9945 90.5385 90.9735 90.5379 90.9524V43.698C90.5379 43.6772 90.5337 43.6566 90.5255 43.6373C90.5173 43.6181 90.5054 43.6007 90.4903 43.586C90.4752 43.5713 90.4573 43.5596 90.4376 43.5516C90.4179 43.5437 90.3968 43.5396 90.3755 43.5396H80.6897C80.4957 43.5396 80.3096 43.4644 80.1725 43.3306C80.0353 43.1967 79.9582 43.0152 79.9582 42.826C79.9582 42.6367 80.0353 42.4552 80.1725 42.3214C80.3096 42.1875 80.4957 42.1124 80.6897 42.1124H90.3755C91.2709 42.1124 92.0007 42.8244 92.0007 43.698V90.9524C92.0007 91.373 91.8296 91.7765 91.5248 92.0741C91.2201 92.3717 90.8067 92.5391 90.3755 92.5396V92.5396Z" fill="#7EAF3B"/>
<path d="M73.4622 43.5396H53.9396C53.7456 43.5396 53.5596 43.4644 53.4224 43.3306C53.2853 43.1967 53.2082 43.0152 53.2082 42.826C53.2082 42.6367 53.2853 42.4552 53.4224 42.3214C53.5596 42.1875 53.7456 42.1124 53.9396 42.1124H73.4622C73.6562 42.1124 73.8422 42.1875 73.9794 42.3214C74.1166 42.4552 74.1936 42.6367 74.1936 42.826C74.1936 43.0152 74.1166 43.1967 73.9794 43.3306C73.8422 43.4644 73.6562 43.5396 73.4622 43.5396V43.5396Z" fill="#7EAF3B"/>
<path d="M50.6202 48.485C50.4262 48.485 50.2402 48.4098 50.103 48.2759C49.9659 48.1421 49.8888 47.9606 49.8888 47.7714V38.173C49.8888 37.9837 49.9659 37.8022 50.103 37.6684C50.2402 37.5345 50.4262 37.4594 50.6202 37.4594C50.8142 37.4594 51.0003 37.5345 51.1374 37.6684C51.2746 37.8022 51.3517 37.9837 51.3517 38.173V47.7714C51.3512 47.9605 51.274 48.1417 51.137 48.2755C50.9999 48.4092 50.8141 48.4845 50.6202 48.485V48.485Z" fill="#7EAF3B"/>
<path d="M77.1112 48.485C76.9172 48.485 76.7312 48.4098 76.594 48.2759C76.4568 48.1421 76.3798 47.9606 76.3798 47.7714V38.173C76.3798 38.0792 76.3987 37.9864 76.4354 37.8999C76.4722 37.8133 76.5261 37.7346 76.594 37.6684C76.6619 37.6021 76.7425 37.5495 76.8313 37.5137C76.92 37.4778 77.0151 37.4594 77.1112 37.4594C77.2073 37.4594 77.3024 37.4778 77.3911 37.5137C77.4799 37.5495 77.5605 37.6021 77.6284 37.6684C77.6963 37.7346 77.7502 37.8133 77.787 37.8999C77.8237 37.9864 77.8426 38.0792 77.8426 38.173V47.7714C77.8426 47.9606 77.7656 48.1421 77.6284 48.2759C77.4912 48.4098 77.3052 48.485 77.1112 48.485V48.485Z" fill="#7EAF3B"/>
<path d="M91.2692 55.3154H35.8307C35.7346 55.3154 35.6395 55.297 35.5508 55.2611C35.462 55.2253 35.3814 55.1727 35.3135 55.1064C35.2456 55.0402 35.1917 54.9615 35.1549 54.8749C35.1182 54.7883 35.0992 54.6956 35.0992 54.6018C35.0992 54.5081 35.1182 54.4153 35.1549 54.3288C35.1917 54.2422 35.2456 54.1635 35.3135 54.0973C35.3814 54.031 35.462 53.9784 35.5508 53.9426C35.6395 53.9067 35.7346 53.8882 35.8307 53.8882H91.2709C91.3669 53.8883 91.462 53.9069 91.5507 53.9429C91.6394 53.9788 91.72 54.0315 91.7878 54.0978C91.8557 54.1642 91.9095 54.2429 91.9461 54.3295C91.9828 54.4161 92.0016 54.5089 92.0015 54.6026C92.0014 54.6964 91.9824 54.7891 91.9455 54.8757C91.9086 54.9622 91.8547 55.0408 91.7867 55.107C91.7187 55.1732 91.638 55.2257 91.5492 55.2614C91.4604 55.2972 91.3653 55.3155 91.2692 55.3154V55.3154Z" fill="#7EAF3B"/>
</svg>
