<svg width="124" height="124" viewBox="0 0 124 124" fill="none" xmlns="http://www.w3.org/2000/svg">
<circle cx="62" cy="62" r="62" fill="#FFF8E4"/>
<path d="M62.5 63.8659C54.1687 63.8659 47.3908 57.088 47.3908 48.7566C47.3908 40.4252 54.1687 33.649 62.5 33.649C70.8314 33.649 77.6093 40.4269 77.6093 48.7582C77.6093 57.0896 70.8314 63.8659 62.5 63.8659V63.8659ZM62.5 35.0839C54.9617 35.0839 48.8273 41.2182 48.8273 48.7566C48.8273 56.295 54.9617 62.4294 62.5 62.4294C70.0384 62.4294 76.1728 56.295 76.1728 48.7566C76.1728 41.2182 70.0384 35.0839 62.5 35.0839V35.0839Z" fill="#7EAF3B"/>
<path d="M89.8455 89.3507H35.1545C34.964 89.3507 34.7813 89.275 34.6466 89.1403C34.5119 89.0056 34.4362 88.823 34.4362 88.6325V79.3586C35.0911 67.579 45.704 66.8688 45.8112 66.8623L79.1449 66.8607C79.2911 66.8672 89.9073 67.579 90.5605 79.318L90.5621 88.6325C90.5626 88.7268 90.5443 88.8202 90.5085 88.9075C90.4726 88.9947 90.4199 89.074 90.3533 89.1407C90.2867 89.2075 90.2075 89.2604 90.1204 89.2965C90.0332 89.3325 89.9398 89.3509 89.8455 89.3507V89.3507ZM35.8727 87.9158H89.1273V79.3586C88.5455 68.9293 79.4926 68.3167 79.1075 68.2956L45.8519 68.2972C45.5074 68.3183 36.4545 68.9635 35.8727 79.3976V87.9158V87.9158Z" fill="#7EAF3B"/>
<path d="M52.116 75.388C52.2 74.296 52.62 73.438 53.376 72.814C54.144 72.178 55.134 71.86 56.346 71.86C57.15 71.86 57.84 72.004 58.416 72.292C58.992 72.58 59.424 72.976 59.712 73.48C60.012 73.972 60.162 74.53 60.162 75.154C60.162 75.91 59.94 76.564 59.496 77.116C59.052 77.668 58.422 78.01 57.606 78.142V78.232C58.458 78.4 59.136 78.772 59.64 79.348C60.144 79.912 60.396 80.656 60.396 81.58C60.396 82.612 60.048 83.458 59.352 84.118C58.668 84.766 57.672 85.09 56.364 85.09C55.116 85.09 54.09 84.766 53.286 84.118C52.482 83.458 52.02 82.528 51.9 81.328H53.124C53.232 82.132 53.568 82.786 54.132 83.29C54.696 83.782 55.44 84.028 56.364 84.028C57.276 84.028 57.972 83.788 58.452 83.308C58.944 82.828 59.19 82.216 59.19 81.472C59.19 79.648 57.876 78.736 55.248 78.736H54.852V77.674H55.266C57.714 77.674 58.938 76.876 58.938 75.28C58.938 74.584 58.71 74.026 58.254 73.606C57.798 73.174 57.15 72.958 56.31 72.958C55.494 72.958 54.816 73.174 54.276 73.606C53.748 74.026 53.436 74.62 53.34 75.388H52.116ZM70.8353 73.174H64.2473V77.782C64.5473 77.362 64.9853 77.02 65.5613 76.756C66.1373 76.48 66.7613 76.342 67.4333 76.342C68.4173 76.342 69.2213 76.546 69.8453 76.954C70.4693 77.35 70.9193 77.872 71.1953 78.52C71.4713 79.156 71.6093 79.84 71.6093 80.572C71.6093 81.412 71.4473 82.174 71.1233 82.858C70.8113 83.53 70.3253 84.064 69.6653 84.46C69.0173 84.856 68.2073 85.054 67.2353 85.054C65.9993 85.054 64.9973 84.736 64.2293 84.1C63.4613 83.452 62.9933 82.582 62.8253 81.49H64.0673C64.2233 82.282 64.5833 82.894 65.1473 83.326C65.7113 83.758 66.4073 83.974 67.2353 83.974C68.2793 83.974 69.0653 83.668 69.5933 83.056C70.1333 82.432 70.4033 81.61 70.4033 80.59C70.4033 79.594 70.1333 78.82 69.5933 78.268C69.0533 77.704 68.2793 77.422 67.2713 77.422C66.5753 77.422 65.9633 77.584 65.4353 77.908C64.9073 78.232 64.5173 78.67 64.2653 79.222H63.0773V72.076H70.8353V73.174Z" fill="#7EAF3B"/>
</svg>
