<svg width="688" height="667" viewBox="0 0 688 667" fill="none" xmlns="http://www.w3.org/2000/svg">
<path d="M326.333 103.626C264.679 103.626 206.714 127.638 163.116 171.234C119.52 214.83 95.5105 272.795 95.5105 334.449C95.5105 396.105 119.52 454.069 163.116 497.664C206.714 541.262 264.679 565.273 326.333 565.273C387.989 565.273 445.953 541.262 489.549 497.664C533.146 454.069 557.155 396.105 557.155 334.449C557.155 272.795 533.146 214.83 489.549 171.234C445.953 127.638 387.989 103.626 326.333 103.626ZM326.333 565.919C264.505 565.919 206.378 541.842 162.66 498.124C118.94 454.404 94.8636 396.276 94.8636 334.449C94.8636 272.621 118.94 214.494 162.66 170.776C206.378 127.056 264.505 102.978 326.333 102.978C388.16 102.978 446.288 127.056 490.008 170.776C533.726 214.494 557.803 272.621 557.803 334.449C557.803 396.276 533.726 454.404 490.008 498.124C446.288 541.842 388.16 565.919 326.333 565.919" fill="#9CCC65"/>
<path d="M326.333 76.1474C291.463 76.1474 257.636 82.9776 225.791 96.4466C195.032 109.456 167.408 128.081 143.687 151.803C119.965 175.524 101.34 203.148 88.33 233.907C74.8614 265.752 68.0323 299.579 68.0323 334.449C68.0323 369.319 74.8614 403.147 88.33 434.991C101.34 465.751 119.965 493.375 143.687 517.097C167.408 540.817 195.032 559.443 225.791 572.453C257.636 585.921 291.463 592.75 326.333 592.75C361.203 592.75 395.031 585.921 426.877 572.453C457.635 559.443 485.257 540.817 508.979 517.097C532.701 493.375 551.327 465.751 564.337 434.991C577.806 403.147 584.634 369.319 584.634 334.449C584.634 299.579 577.806 265.752 564.337 233.907C551.327 203.148 532.701 175.524 508.979 151.803C485.257 128.081 457.635 109.456 426.877 96.4466C395.031 82.9776 361.203 76.1474 326.333 76.1474V76.1474ZM326.333 593.475C291.365 593.475 257.443 586.627 225.509 573.12C194.665 560.073 166.962 541.397 143.174 517.607C119.386 493.821 100.71 466.119 87.6636 435.274C74.1561 403.34 67.3071 369.418 67.3071 334.449C67.3071 299.481 74.1561 265.559 87.6636 233.625C100.71 202.779 119.386 175.078 143.174 151.29C166.962 127.502 194.665 108.824 225.509 95.7789C257.443 82.2722 291.365 75.4224 326.333 75.4224C361.302 75.4224 395.224 82.2722 427.158 95.7789C458.003 108.824 485.705 127.502 509.492 151.29C533.28 175.078 551.957 202.779 565.003 233.625C578.511 265.559 585.359 299.481 585.359 334.449C585.359 369.418 578.511 403.34 565.003 435.274C551.957 466.119 533.28 493.821 509.492 517.607C485.705 541.397 458.003 560.073 427.158 573.12C395.224 586.627 361.302 593.475 326.333 593.475Z" fill="#9CCC65"/>
<path d="M326.333 151.946C301.696 151.946 277.795 156.771 255.294 166.287C233.563 175.481 214.044 188.639 197.284 205.4C180.523 222.16 167.363 241.679 158.171 263.41C148.656 285.911 143.83 309.811 143.83 334.449C143.83 359.087 148.656 382.988 158.171 405.488C167.363 427.22 180.523 446.737 197.284 463.499C214.044 480.26 233.563 493.418 255.294 502.612C277.795 512.128 301.696 516.952 326.333 516.952C350.971 516.952 374.872 512.128 397.372 502.612C419.104 493.418 438.623 480.26 455.383 463.499C472.144 446.737 485.302 427.22 494.494 405.488C504.012 382.988 508.836 359.087 508.836 334.449C508.836 309.811 504.012 285.911 494.494 263.41C485.302 241.679 472.144 222.16 455.383 205.4C438.623 188.639 419.104 175.481 397.372 166.287C374.872 156.771 350.971 151.946 326.333 151.946V151.946ZM326.333 517.464C301.627 517.464 277.658 512.625 255.095 503.082C233.302 493.864 213.729 480.668 196.922 463.861C180.115 447.052 166.919 427.479 157.701 405.687C148.157 383.124 143.317 359.156 143.317 334.449C143.317 309.743 148.157 285.774 157.701 263.211C166.919 241.418 180.115 221.845 196.922 205.038C213.729 188.231 233.302 175.035 255.095 165.816C277.658 156.273 301.627 151.433 326.333 151.433C351.04 151.433 375.009 156.273 397.571 165.816C419.364 175.035 438.936 188.231 455.745 205.038C472.552 221.845 485.749 241.418 494.966 263.211C504.509 285.774 509.348 309.743 509.348 334.449C509.348 359.156 504.509 383.124 494.966 405.687C485.749 427.479 472.552 447.052 455.745 463.861C438.936 480.668 419.364 493.864 397.571 503.082C375.009 512.625 351.04 517.464 326.333 517.464Z" fill="#9CCC65"/>
<path d="M326.333 626.035C286.97 626.035 248.783 618.326 212.834 603.121C178.113 588.434 146.93 567.41 120.152 540.632C93.3723 513.853 72.3482 482.668 57.6622 447.948C42.4568 412 34.7477 373.813 34.7477 334.449C34.7477 321.461 35.5871 308.602 37.2579 295.908C37.7642 295.058 38.1681 294.141 38.4549 293.174C36.5303 306.753 35.563 320.526 35.563 334.449C35.563 373.703 43.2511 411.783 58.4133 447.63C73.0582 482.255 94.024 513.351 120.727 540.054C147.432 566.759 178.528 587.724 213.152 602.369C249 617.532 287.079 625.218 326.333 625.218C365.587 625.218 403.665 617.532 439.514 602.369C443.8 600.556 448.032 598.646 452.208 596.642C452.411 596.848 452.609 597.05 452.814 597.255C448.544 599.31 444.217 601.267 439.832 603.121C403.884 618.326 365.697 626.035 326.333 626.035ZM578.707 480.632C578.52 480.415 578.332 480.198 578.142 479.983C584.157 469.584 589.532 458.791 594.253 447.63C609.416 411.783 617.102 373.703 617.102 334.449C617.102 295.195 609.416 257.116 594.253 221.268C587.64 205.63 579.736 190.713 570.597 176.595L571.272 176.138C580.442 190.3 588.37 205.264 595.005 220.95C610.21 256.899 617.919 295.085 617.919 334.449C617.919 373.813 610.21 412 595.005 447.948C590.235 459.227 584.796 470.129 578.707 480.632V480.632ZM38.9488 289.829C38.9488 289.801 38.9494 289.774 38.9494 289.745C38.9494 288.744 38.8268 287.772 38.5973 286.842C41.4849 269.227 45.9909 251.957 52.0946 235.131C52.1795 235.684 52.2696 236.243 52.3632 236.794C46.2046 254.045 41.7257 271.759 38.9488 289.829ZM130.109 118.759C154.563 96.4707 182.332 78.6793 212.834 65.7785C248.783 50.5733 286.97 42.8644 326.333 42.8644C365.697 42.8644 403.884 50.5733 439.832 65.7785C468.964 78.1006 495.608 94.8868 519.247 115.789H518.016C494.613 95.2274 468.283 78.6974 439.514 66.529C403.665 51.366 365.587 43.6798 326.333 43.6798C287.079 43.6798 249 51.366 213.152 66.529C183.185 79.2038 155.863 96.6139 131.741 118.38C131.196 118.502 130.652 118.628 130.109 118.759" fill="#DDF4D5"/>
<path d="M326.333 660.783C282.279 660.783 239.542 652.155 199.309 635.138C160.45 618.701 125.55 595.172 95.5813 565.202C65.611 535.232 42.0807 500.331 25.6455 461.474C8.62818 421.24 0 378.503 0 334.449C0 290.395 8.62818 247.658 25.6455 207.425C42.0807 168.566 65.611 133.666 95.5813 103.697C125.55 73.7269 160.45 50.1979 199.309 33.7614C239.542 16.7447 282.279 8.115 326.333 8.115C370.387 8.115 413.126 16.7447 453.358 33.7614C492.216 50.1979 527.116 73.7269 557.086 103.697C561.032 107.643 564.866 111.674 568.587 115.789H567.354C563.817 111.897 560.18 108.081 556.439 104.342C526.553 74.4563 491.753 50.9922 453.002 34.6024C412.881 17.6324 370.265 9.02831 326.333 9.02831C282.401 9.02831 239.784 17.6324 199.665 34.6024C160.914 50.9922 126.112 74.4563 96.2263 104.342C66.3398 134.228 42.8766 169.03 26.4851 207.781C9.51662 247.9 0.913154 290.518 0.913154 334.449C0.913154 378.381 9.51662 420.997 26.4851 461.117C42.8766 499.869 66.3398 534.669 96.2263 564.555C126.112 594.441 160.914 617.907 199.665 634.297C239.784 651.265 282.401 659.869 326.333 659.869C370.265 659.869 412.881 651.265 453.002 634.297C464.39 629.48 475.438 624.051 486.119 618.029C486.51 618.16 486.898 618.289 487.29 618.417C476.355 624.619 465.036 630.199 453.358 635.138C413.126 652.155 370.387 660.783 326.333 660.783V660.783ZM597.167 516.614C597.071 516.215 596.973 515.814 596.871 515.418C608.308 498.353 618.103 480.216 626.181 461.117C643.151 420.997 651.755 378.381 651.755 334.449C651.755 290.518 643.151 247.9 626.181 207.781C614.003 178.989 597.92 152.377 578.199 128.343V126.905C598.298 151.231 614.665 178.21 627.022 207.425C644.038 247.658 652.667 290.395 652.667 334.449C652.667 378.503 644.038 421.24 627.022 461.474C618.812 480.881 608.834 499.302 597.167 516.614" fill="#C2E395"/>
<path d="M326.333 34.004C285.774 34.004 246.426 41.948 209.387 57.6144C173.61 72.7472 141.479 94.4104 113.887 122.002C86.2942 149.595 64.6308 181.726 49.4985 217.502C33.8323 254.543 25.8882 293.889 25.8882 334.449C25.8882 375.009 33.8323 414.356 49.4985 451.396C64.6308 487.173 86.2942 519.304 113.887 546.895C141.479 574.488 173.61 596.152 209.387 611.283C246.426 626.951 285.774 634.893 326.333 634.893C366.894 634.893 406.24 626.951 443.28 611.283C479.057 596.152 511.189 574.488 538.781 546.895C566.371 519.304 588.034 487.173 603.167 451.396C618.835 414.356 626.778 375.009 626.778 334.449C626.778 293.889 618.835 254.543 603.167 217.502C588.034 181.726 566.371 149.595 538.781 122.002C511.189 94.4104 479.057 72.7472 443.28 57.6144C406.24 41.948 366.894 34.004 326.333 34.004V34.004ZM326.333 635.738C285.659 635.738 246.203 627.771 209.059 612.059C173.182 596.884 140.96 575.161 113.29 547.492C85.6213 519.823 63.8972 487.602 48.7225 451.724C33.0115 414.58 25.0457 375.123 25.0457 334.449C25.0457 293.776 33.0115 254.319 48.7225 217.175C63.8972 181.298 85.6213 149.076 113.29 121.407C140.96 93.7367 173.182 72.0133 209.059 56.8382C246.203 41.1281 285.659 33.1615 326.333 33.1615C367.007 33.1615 406.464 41.1281 443.608 56.8382C479.485 72.0133 511.707 93.7367 539.376 121.407C567.045 149.076 588.77 181.298 603.943 217.175C619.655 254.319 627.622 293.776 627.622 334.449C627.622 375.123 619.655 414.58 603.943 451.724C588.77 487.602 567.045 519.823 539.376 547.492C511.707 575.161 479.485 596.884 443.608 612.059C406.464 627.771 367.007 635.738 326.333 635.738" fill="#9CCC65"/>
<path d="M307.175 119.443C299.238 119.443 292.625 113.778 291.157 106.273C301.773 104.659 312.568 103.774 323.486 103.643C323.212 112.414 316.014 119.443 307.175 119.443V119.443ZM291.046 105.635C290.919 104.815 290.854 103.977 290.854 103.123C290.854 94.1089 298.161 86.8024 307.175 86.8024C316.146 86.8024 323.426 94.0411 323.495 102.996C312.537 103.127 301.699 104.015 291.046 105.635Z" fill="#D9EBC0"/>
<path d="M291.157 106.273C291.116 106.06 291.079 105.849 291.046 105.635C301.699 104.015 312.537 103.128 323.495 102.996C323.495 103.039 323.495 103.081 323.495 103.123C323.495 103.298 323.492 103.47 323.486 103.643C312.568 103.774 301.773 104.659 291.157 106.273Z" fill="#B1C2E8"/>
<path d="M319.999 118.375C319.804 114.197 317.277 111.478 315.528 111.671C313.78 111.866 309.7 111.282 309.7 111.282C309.401 110.618 309.363 109.765 309.441 108.93C311.333 107.708 312.736 104.998 313.07 101.721C313.498 101.635 313.944 101.126 314.154 100.428C314.415 99.5707 314.22 98.7538 313.721 98.6016C313.541 98.5473 313.345 98.5895 313.156 98.7056C313.183 94.2159 313.033 90.7842 307.179 90.7842C301.648 90.7842 301.238 94.1677 301.212 98.6136C301.054 98.484 300.879 98.4192 300.703 98.4403C300.188 98.5021 299.855 99.2738 299.962 100.164C300.069 101.054 300.575 101.724 301.092 101.663L301.277 101.607C301.579 104.803 302.897 107.477 304.697 108.779C304.795 109.661 304.772 110.577 304.454 111.282C304.454 111.282 300.375 111.866 298.625 111.671C296.877 111.478 294.352 114.197 294.158 118.375C293.972 122.343 305.884 124.733 307.077 124.962C308.269 124.733 320.182 122.343 319.999 118.375" fill="#7EAF3B"/>
<path d="M180.867 574.29C167.151 574.29 156.031 563.17 156.031 549.456C156.031 543.674 158.006 538.356 161.318 534.136C174.099 544.725 187.806 554.016 202.34 561.942C198.036 569.325 190.032 574.29 180.867 574.29V574.29ZM202.696 561.311C188.195 553.404 174.524 544.139 161.773 533.572C166.328 528.102 173.191 524.619 180.867 524.619C194.583 524.619 205.703 535.738 205.703 549.456C205.703 553.748 204.613 557.787 202.696 561.311Z" fill="#D9EBC0"/>
<path d="M202.34 561.942C187.806 554.016 174.099 544.725 161.318 534.136C161.466 533.946 161.618 533.758 161.773 533.572C174.524 544.139 188.195 553.404 202.696 561.311C202.58 561.523 202.462 561.733 202.34 561.942Z" fill="#B6D78A"/>
<path d="M200.381 572.664C200.086 566.307 196.241 562.168 193.581 562.465C190.919 562.76 184.71 561.873 184.71 561.873C184.255 560.86 184.198 559.564 184.317 558.293C187.194 556.432 189.331 552.307 189.84 547.322C190.49 547.194 191.168 546.417 191.489 545.355C191.884 544.05 191.588 542.806 190.832 542.576C190.555 542.494 190.258 542.558 189.97 542.732C190.011 535.901 189.783 530.68 180.876 530.68C172.457 530.68 171.833 535.83 171.794 542.592C171.555 542.396 171.289 542.297 171.021 542.329C170.234 542.424 169.729 543.598 169.892 544.952C170.055 546.307 170.825 547.328 171.61 547.233L171.894 547.148C172.352 552.013 174.358 556.081 177.098 558.063C177.247 559.404 177.211 560.8 176.728 561.873C176.728 561.873 170.519 562.76 167.858 562.465C165.198 562.168 161.353 566.307 161.058 572.664C160.777 578.704 178.905 582.341 180.719 582.691C182.534 582.341 200.661 578.704 200.381 572.664" fill="#7EAF3B"/>
<path d="M578.237 292.583C568.049 292.583 559.788 284.322 559.788 274.134C559.788 265.88 565.209 258.891 572.686 256.534C576.397 268.257 579.249 280.209 581.236 292.34C580.259 292.5 579.257 292.583 578.237 292.583ZM581.949 292.211C579.958 280.054 577.097 268.076 573.381 256.331C574.929 255.909 576.556 255.684 578.237 255.684C588.428 255.684 596.687 263.945 596.687 274.134C596.687 283.052 590.36 290.492 581.949 292.211Z" fill="#D9EBC0"/>
<path d="M581.236 292.34C579.25 280.21 576.397 268.257 572.686 256.534C572.915 256.462 573.147 256.394 573.381 256.331C577.097 268.076 579.958 280.054 581.949 292.211C581.712 292.259 581.476 292.303 581.236 292.34" fill="#B6D78A"/>
<path d="M592.734 291.376C592.513 286.652 589.658 283.578 587.682 283.798C585.704 284.018 581.093 283.359 581.093 283.359C580.755 282.607 580.711 281.643 580.8 280.699C582.937 279.316 584.524 276.252 584.903 272.549C585.385 272.452 585.89 271.878 586.129 271.088C586.422 270.119 586.202 269.194 585.638 269.024C585.435 268.962 585.213 269.01 585.001 269.14C585.029 264.064 584.86 260.188 578.244 260.188C571.991 260.188 571.527 264.013 571.498 269.036C571.319 268.891 571.123 268.816 570.923 268.84C570.339 268.911 569.964 269.783 570.085 270.789C570.205 271.795 570.776 272.553 571.361 272.483L571.571 272.419C571.911 276.035 573.402 279.057 575.436 280.529C575.548 281.525 575.522 282.561 575.162 283.359C575.162 283.359 570.55 284.018 568.573 283.798C566.597 283.578 563.741 286.652 563.523 291.376C563.313 295.862 576.779 298.563 578.128 298.822C579.475 298.563 592.942 295.862 592.734 291.376" fill="#7EAF3B"/>
<path d="M92.8785 428.115C92.8785 432.426 89.3832 435.921 85.0727 435.921C80.7615 435.921 77.2669 432.426 77.2669 428.115C77.2669 423.805 80.7615 420.309 85.0727 420.309C89.3832 420.309 92.8785 423.805 92.8785 428.115Z" fill="#D0EEA8"/>
<path d="M593.139 353.609C593.139 357.919 589.645 361.414 585.334 361.414C581.023 361.414 577.528 357.919 577.528 353.609C577.528 349.297 581.023 345.802 585.334 345.802C589.645 345.802 593.139 349.297 593.139 353.609Z" fill="#D0EEA8"/>
<path d="M401.809 89.1342C400.13 91.2366 397.061 91.5802 394.96 89.8998C392.857 88.2194 392.516 85.1539 394.195 83.05C395.875 80.9491 398.941 80.607 401.043 82.2859C403.147 83.9663 403.488 87.0333 401.809 89.1342Z" fill="#D0EEA8"/>
<path d="M376.55 559.983C377.005 562.637 375.223 565.155 372.571 565.61C369.92 566.065 367.4 564.287 366.945 561.633C366.488 558.981 368.27 556.461 370.922 556.006C373.573 555.55 376.093 557.33 376.55 559.983Z" fill="#D0EEA8"/>
<path d="M289.98 631.651C290.435 634.306 288.654 636.823 286.001 637.279C283.35 637.736 280.83 635.954 280.375 633.302C279.918 630.649 281.7 628.131 284.352 627.675C287.005 627.218 289.523 628.999 289.98 631.651Z" fill="#D0EEA8"/>
<path d="M627.035 389.681C627.49 392.334 625.709 394.854 623.058 395.309C620.405 395.764 617.886 393.984 617.429 391.331C616.974 388.679 618.755 386.159 621.408 385.704C624.06 385.249 626.579 387.029 627.035 389.681" fill="#D0EEA8"/>
<path d="M135.289 102.299C135.744 104.95 133.964 107.47 131.312 107.926C128.659 108.381 126.139 106.6 125.684 103.947C125.229 101.295 127.009 98.775 129.661 98.3199C132.314 97.8647 134.834 99.6462 135.289 102.299Z" fill="#D0EEA8"/>
<path d="M26.7817 301.808C20.1683 301.751 14.8227 296.372 14.8227 289.745C14.8227 283.084 20.2242 277.682 26.8866 277.682C28.0628 277.682 29.1996 277.851 30.2746 278.164C28.7993 285.979 27.6337 293.865 26.7817 301.808ZM27.6319 301.785C28.4766 293.939 29.627 286.152 31.0818 278.433C34.7894 279.807 37.6365 282.952 38.5973 286.842C38.1033 289.853 37.6572 292.877 37.2579 295.908C35.2734 299.24 31.7288 301.535 27.6319 301.785V301.785ZM38.4549 293.174C38.6125 292.058 38.778 290.942 38.9488 289.829C38.9405 290.99 38.7687 292.113 38.4549 293.174Z" fill="#D9EBC0"/>
<path d="M37.2579 295.908C37.6572 292.877 38.1033 289.854 38.5973 286.842C38.8268 287.772 38.9494 288.744 38.9494 289.745C38.9494 289.774 38.9488 289.801 38.9488 289.829C38.778 290.942 38.6125 292.058 38.4549 293.174C38.1681 294.141 37.7642 295.058 37.2579 295.908Z" fill="#D9EBC0"/>
<path d="M26.8866 301.808C26.8512 301.808 26.8172 301.808 26.7817 301.808C27.6337 293.865 28.7993 285.979 30.2746 278.164C30.5478 278.244 30.8175 278.333 31.0818 278.433C29.627 286.152 28.4766 293.939 27.6319 301.785C27.3852 301.8 27.1368 301.808 26.8866 301.808Z" fill="#B6D78A"/>
<path d="M36.3642 301.018C36.2212 297.93 34.3533 295.92 33.061 296.063C31.7688 296.208 28.7533 295.777 28.7533 295.777C28.5321 295.285 28.5038 294.654 28.5621 294.037C29.959 293.133 30.997 291.13 31.2443 288.71C31.5599 288.646 31.8895 288.27 32.0455 287.754C32.2369 287.12 32.0943 286.515 31.7252 286.404C31.5921 286.363 31.4473 286.395 31.3067 286.481C31.3273 283.161 31.216 280.626 26.8901 280.626C22.8015 280.626 22.4984 283.127 22.4796 286.413L22.1038 286.285C21.7218 286.33 21.4757 286.9 21.5559 287.558C21.6341 288.215 22.008 288.711 22.39 288.666L22.5278 288.624C22.7496 290.988 23.7246 292.964 25.0544 293.926C25.1275 294.578 25.1105 295.255 24.8762 295.777C24.8762 295.777 21.8601 296.208 20.5673 296.063C19.2751 295.92 17.4077 297.93 17.2647 301.018C17.1287 303.951 25.9334 305.717 26.8141 305.888C27.6949 305.717 36.5009 303.951 36.3642 301.018Z" fill="#7EAF3B"/>
<path d="M456.484 472.632H446.347C449.567 469.829 452.702 466.904 455.745 463.861C472.552 447.052 485.749 427.479 494.966 405.687C504.509 383.124 509.348 359.156 509.348 334.449C509.348 309.743 504.509 285.774 494.966 263.211C491.801 255.727 488.166 248.504 484.077 241.566H515.093C515.313 241.566 515.532 241.555 515.748 241.533C531.556 271.119 540.512 304.903 540.512 340.791C540.512 381.151 529.174 418.866 509.513 450.921C489.183 451.889 470.705 459.929 456.484 472.632ZM445.566 472.632H445.046L441.224 457.768C447.298 457.435 452.83 456.268 457.605 454.482C462.886 452.505 467.235 449.771 470.366 446.565C465.749 452.481 460.75 458.131 455.383 463.499C452.208 466.673 448.935 469.719 445.566 472.632ZM372.922 472.632H207.101C203.733 469.719 200.458 466.673 197.284 463.499C195.584 461.798 193.922 460.071 192.295 458.315C192.704 458.366 193.121 458.393 193.543 458.393H211.755H259.01H316.026C318.577 458.393 320.895 457.421 322.636 455.831C322.87 456.438 323.088 457.082 323.289 457.763C332.652 454.38 344.905 449.218 349.331 446.044C349.331 446.044 358.276 439.196 366.753 430.548C367.62 429.665 368.481 428.763 369.328 427.847C369.622 428.195 369.943 428.536 370.288 428.87C375.767 434.171 378.771 441.521 378.045 449.241L372.922 472.632ZM206.32 472.632H164.901C135.949 436.519 118.628 390.677 118.628 340.791C118.628 332.741 119.079 324.802 119.957 316.987C120.556 317.197 121.163 317.405 121.766 317.605C128.765 319.925 136.106 321.521 143.711 322.304C143.449 326.33 143.317 330.381 143.317 334.449C143.317 359.156 148.157 383.124 157.701 405.687C164.357 421.424 173.087 436.004 183.755 449.219C184.041 453.655 187.26 457.267 191.469 458.173C193.242 460.102 195.061 461.998 196.922 463.861C199.965 466.904 203.1 469.829 206.32 472.632ZM183.721 448.362C173.279 435.324 164.72 420.969 158.171 405.488C148.656 382.988 143.83 359.087 143.83 334.449C143.83 330.396 143.961 326.366 144.22 322.356C145.685 322.499 147.165 322.613 148.65 322.695C150.603 322.803 152.547 322.858 154.481 322.858C169.075 322.858 183.033 319.803 195.709 314.27C230.386 299.137 255.466 265.47 257.708 225.116C257.815 223.166 257.87 221.224 257.87 219.295C257.871 201.804 253.484 185.223 245.706 170.672C248.851 169.122 252.048 167.66 255.294 166.287C277.795 156.771 301.696 151.946 326.333 151.946C345.211 151.946 363.655 154.779 381.368 160.382V165.602C381.368 168.836 383.99 171.458 387.223 171.458H408.539C414.27 174.349 419.828 177.532 425.201 181H313.685C310.168 181 307.315 183.851 307.315 187.37V238.182C307.315 240.298 308.365 242.276 310.118 243.462L342.328 265.223C342.714 265.484 343.125 265.6 343.524 265.6C344.854 265.6 346.031 264.311 345.58 262.825L339.139 241.566H342.439H483.482C487.622 248.565 491.298 255.853 494.494 263.41C504.012 285.911 508.836 309.811 508.836 334.449C508.836 359.087 504.012 382.988 494.494 405.488C488.99 418.503 482.064 430.723 473.791 442.032C477.044 436.184 476.664 429.415 471.362 422.987C471.362 422.987 496.342 414.47 484.13 384.637C471.916 354.805 458.021 349.221 458.021 349.221C458.021 349.221 458.455 348.638 459.157 347.594C464.818 350.04 469.708 354.555 472.797 359.693C472.873 359.818 472.985 359.869 473.098 359.869C473.356 359.869 473.613 359.601 473.442 359.316C470.298 354.091 465.332 349.476 459.579 346.955C459.878 346.501 460.209 345.983 460.565 345.411C464.878 346.281 469.072 347.94 472.974 349.862C473.033 349.891 473.09 349.904 473.146 349.904C473.493 349.904 473.722 349.401 473.35 349.217C469.442 347.294 465.275 345.638 460.979 344.741C468.537 332.315 484.781 298.082 437.214 294.165C440.174 290.934 444.294 288.899 448.377 287.447C448.781 287.302 448.665 286.704 448.306 286.704C448.267 286.704 448.225 286.711 448.178 286.728C444.092 288.182 440.03 290.161 436.992 293.317C437.449 291.216 438.147 289.154 438.941 287.183C439.051 286.913 438.828 286.735 438.597 286.735C438.447 286.735 438.293 286.811 438.224 286.984C437.351 289.148 436.6 291.406 436.147 293.709C435.405 293.011 433.71 291.468 431.283 289.538C429.986 287.602 428.5 285.795 426.944 284.191C419.95 276.98 410.518 273.907 400.767 273.907C399.215 273.907 397.654 273.985 396.094 274.136C395.913 274.154 395.8 274.273 395.758 274.413C395.663 274.412 395.566 274.412 395.471 274.412C388.729 274.412 381.873 276.419 375.517 281.729C367.555 288.381 366.42 298.583 368.452 308.391C368.574 309.948 368.857 311.458 369.019 312.46C370.212 319.806 373.416 326.705 377.335 333.023C372.47 333.844 363.696 336.777 365.521 347.221C368.019 361.518 379.782 379.538 365.843 381.415C359.663 382.245 354.903 388.985 355.821 398.826C355.985 400.584 356.33 402.44 356.88 404.378C348.138 419.888 339.466 435.753 339.466 435.753C339.466 435.753 333.104 438.774 325.629 442.386L322.912 363.076C322.731 357.794 318.395 353.604 313.108 353.604H190.625C185.078 353.604 180.633 358.202 180.823 363.748L183.721 448.362ZM467.284 181H426.141C420.827 177.538 415.334 174.355 409.668 171.458H455.382C459.465 174.497 463.434 177.68 467.284 181ZM245.463 170.221C242.116 164.036 238.158 158.223 233.659 152.863C262.433 138.151 295.035 129.848 329.57 129.848C347.44 129.848 364.799 132.073 381.368 136.255V159.846C363.652 154.258 345.209 151.433 326.333 151.433C301.627 151.433 277.658 156.273 255.095 165.816C251.834 167.196 248.622 168.664 245.463 170.221Z" fill="#D0EEA8"/>
<path d="M446.347 472.632H445.566C448.935 469.719 452.208 466.673 455.383 463.499C460.75 458.131 465.749 452.481 470.366 446.565C471.758 445.138 472.908 443.619 473.791 442.032C482.064 430.723 488.99 418.503 494.494 405.488C504.012 382.988 508.836 359.087 508.836 334.449C508.836 309.811 504.012 285.911 494.494 263.41C491.298 255.853 487.622 248.565 483.482 241.566H484.077C488.166 248.504 491.801 255.727 494.966 263.211C504.509 285.774 509.348 309.743 509.348 334.449C509.348 359.156 504.509 383.124 494.966 405.687C485.749 427.479 472.552 447.052 455.745 463.861C452.702 466.904 449.567 469.829 446.347 472.632V472.632ZM207.101 472.632H206.32C203.1 469.829 199.965 466.904 196.922 463.861C195.061 461.998 193.242 460.102 191.469 458.173C191.741 458.232 192.017 458.279 192.295 458.315C193.922 460.071 195.584 461.798 197.284 463.499C200.458 466.673 203.733 469.719 207.101 472.632ZM183.755 449.219C173.087 436.004 164.357 421.424 157.701 405.687C148.157 383.124 143.317 359.156 143.317 334.449C143.317 330.381 143.449 326.33 143.711 322.304C143.883 322.323 144.048 322.339 144.22 322.356C143.961 326.366 143.83 330.396 143.83 334.449C143.83 359.087 148.656 382.988 158.171 405.488C164.72 420.969 173.279 435.324 183.721 448.362L183.74 448.921C183.744 449.02 183.749 449.12 183.755 449.219V449.219ZM426.141 181H425.201C419.828 177.532 414.27 174.349 408.54 171.458H409.668C415.334 174.355 420.827 177.538 426.141 181ZM245.706 170.671C245.624 170.519 245.544 170.372 245.463 170.221C248.622 168.664 251.834 167.196 255.095 165.816C277.658 156.273 301.627 151.433 326.333 151.433C345.209 151.433 363.652 154.258 381.368 159.846V160.382C363.655 154.779 345.211 151.946 326.333 151.946C301.696 151.946 277.795 156.771 255.294 166.287C252.048 167.66 248.851 169.122 245.706 170.671" fill="#B1C2E8"/>
<path d="M378.137 332.899C374.663 327.334 371.769 321.341 370.279 314.948C372.815 322.247 376.752 328.776 380.39 332.703C380.39 332.703 379.491 332.716 378.137 332.899V332.899ZM429.199 287.927C422.323 282.772 411.4 276.056 399.729 274.668C400.063 274.66 400.398 274.656 400.733 274.656C410.446 274.656 419.805 277.733 426.703 285.019C427.564 285.927 428.402 286.903 429.199 287.927" fill="#6A6D73"/>
<path d="M426.703 285.019C427.564 285.927 428.402 286.903 429.199 287.927C422.324 282.772 411.4 276.056 399.729 274.668C409.799 274.449 419.569 277.483 426.703 285.019ZM370.279 314.948C372.815 322.247 376.752 328.776 380.39 332.703C380.39 332.703 379.492 332.716 378.137 332.899C374.663 327.334 371.769 321.341 370.279 314.948ZM484.13 384.637C471.916 354.805 458.021 349.221 458.021 349.221C458.021 349.221 458.455 348.638 459.157 347.594C464.818 350.04 469.708 354.555 472.797 359.693C473.044 360.103 473.689 359.727 473.442 359.316C470.298 354.091 465.332 349.476 459.579 346.955C459.878 346.501 460.209 345.983 460.565 345.411C464.878 346.281 469.072 347.94 472.974 349.862C473.404 350.073 473.782 349.429 473.35 349.217C469.442 347.294 465.275 345.637 460.979 344.741C468.537 332.315 484.781 298.082 437.214 294.165C440.174 290.934 444.294 288.899 448.377 287.447C448.826 287.287 448.633 286.565 448.178 286.728C444.092 288.182 440.031 290.161 436.992 293.317C437.449 291.216 438.147 289.154 438.941 287.183C439.122 286.737 438.4 286.544 438.224 286.984C437.351 289.148 436.6 291.406 436.147 293.709C435.405 293.011 433.71 291.468 431.283 289.538C429.986 287.602 428.5 285.795 426.944 284.191C418.836 275.831 407.454 273.033 396.094 274.136C395.913 274.154 395.8 274.273 395.758 274.413C388.923 274.356 381.963 276.344 375.517 281.729C367.555 288.381 366.42 298.583 368.452 308.391C368.574 309.948 368.857 311.458 369.019 312.46C370.212 319.806 373.416 326.705 377.335 333.023C372.47 333.844 363.696 336.777 365.521 347.221C368.019 361.518 379.782 379.538 365.843 381.415C351.906 383.29 345.19 415.209 394.546 445.012C443.901 474.815 490.832 446.596 471.362 422.987C471.362 422.987 496.342 414.47 484.13 384.637Z" fill="#4F4F4F"/>
<path d="M441.224 457.768L439.789 452.188L449.331 420.607L460.723 382.904C460.357 381.565 460.003 380.455 459.632 379.516L462.926 382.129C462.926 382.129 469.19 430.049 457.605 454.482C452.83 456.268 447.298 457.435 441.224 457.768V457.768ZM356.88 404.378C356.33 402.44 355.985 400.584 355.821 398.826L373.175 376.741C370.226 380.987 363.533 392.579 356.88 404.378ZM446.517 369.106C441.498 366.178 428.78 359.391 428.78 359.391L427.015 341.306L429.253 334.673C429.253 334.673 430.72 335.986 432.817 335.986C433.235 335.986 433.68 335.933 434.141 335.808C432.625 336.807 430.928 338.132 430.316 339.386C429.11 341.85 431.597 357.265 431.597 357.265L446.517 369.106ZM395.728 364.723L398.281 353.785C398.281 353.785 376.406 343.428 394.056 307.83C390.857 314.273 388.688 322.211 389.725 331.293C391.042 342.83 393.651 346.439 398.281 349.806C399.696 350.835 401.967 351.432 404.638 351.594C404.627 354.101 403.958 358.342 400.519 363.317C400.517 363.316 400.517 363.314 400.517 363.314C400.517 363.314 398.391 363.879 395.728 364.723V364.723ZM394.056 307.83C394.056 307.83 394.064 307.817 394.076 307.791C394.07 307.805 394.064 307.817 394.056 307.83ZM394.076 307.791C394.077 307.788 394.079 307.783 394.08 307.782C394.079 307.785 394.077 307.788 394.076 307.791ZM394.08 307.782C394.082 307.78 394.082 307.78 394.082 307.779C394.082 307.779 394.08 307.78 394.08 307.782ZM394.082 307.779C394.083 307.777 394.083 307.776 394.083 307.774C394.083 307.777 394.083 307.776 394.082 307.779ZM394.083 307.774L394.086 307.77C394.085 307.771 394.085 307.773 394.083 307.774ZM394.086 307.77C394.086 307.77 394.086 307.77 394.086 307.768V307.77ZM394.086 307.768C394.73 306.472 395.324 305.276 395.874 304.163H395.875C394.945 306.04 394.239 307.462 394.086 307.768V307.768ZM396.95 301.995C400.602 294.628 401.901 292.009 401.901 292.009C401.901 292.009 399.186 297.485 396.95 301.995Z" fill="#7EAF3B"/>
<path d="M396.073 304.167C396.006 304.167 395.94 304.165 395.875 304.164C396.21 303.488 396.573 302.756 396.95 301.995L397.287 302.055C397.287 302.055 397.334 302.052 397.423 302.046C396.966 302.727 396.514 303.436 396.073 304.167V304.167ZM395.874 304.164C388.986 304.038 386.346 300.079 386.346 300.079L396.95 301.995C396.612 302.676 396.254 303.399 395.874 304.164" fill="#365BB2"/>
<path d="M395.875 304.163H395.874C396.254 303.399 396.612 302.676 396.95 301.995C396.573 302.756 396.21 303.488 395.875 304.163" fill="#3154AD"/>
<path d="M396.291 376.658L391.815 368.702C391.815 368.702 378.831 369.986 374.113 375.49C369.395 380.996 339.466 435.753 339.466 435.753C339.466 435.753 326.503 441.908 315.833 447.158C318.493 448.817 321.548 451.857 323.289 457.763C332.652 454.38 344.905 449.218 349.331 446.044C349.331 446.044 378.227 423.924 381.372 408.983C384.518 394.041 396.291 376.658 396.291 376.658Z" fill="#F3A273"/>
<path d="M366.753 430.548C364.434 427.442 360.473 418.598 371.706 401.836C366.625 413.542 364.203 421.789 369.328 427.847C368.481 428.764 367.62 429.665 366.753 430.548" fill="#ED9060"/>
<path d="M315.833 447.158C302.502 453.715 287.315 461.187 286.441 461.625C284.869 462.411 272.285 458.479 270.713 459.266C269.14 460.051 260.49 464.77 257.344 465.558C254.198 466.343 265.208 467.917 269.926 465.558C274.645 463.198 276.217 467.917 280.151 468.703C284.083 469.489 286.441 470.275 288.8 468.703C288.8 468.703 306.945 463.67 323.289 457.763C321.548 451.857 318.493 448.817 315.833 447.158Z" fill="#F3A273"/>
<path d="M404.403 349.169C404.403 349.169 406.761 357.82 396.538 368.044L391.031 378.266L402.829 391.636L414.625 395.567L439.789 366.47L428.78 359.391L425.633 327.15L404.403 349.169Z" fill="#F9A87B"/>
<path d="M404.327 354.649C404.556 353.462 404.633 352.432 404.638 351.594C405.127 351.624 405.631 351.637 406.145 351.637C411.753 351.637 418.63 349.885 423.128 346.343C418.72 352.56 408.297 354.231 404.327 354.649Z" fill="#EB8D5F"/>
<path d="M400.517 363.314C400.517 363.314 405.188 376.693 428.78 359.391C428.78 359.391 443.483 367.237 447.51 369.697C456.461 375.168 458.363 374.254 460.723 382.904L439.789 452.188L446.867 479.711L371.344 479.839L378.045 449.241C378.771 441.521 375.767 434.171 370.288 428.871C359.494 418.429 373.968 401.153 385.351 369.697C386.292 367.099 400.517 363.314 400.517 363.314" fill="#EF3176"/>
<path d="M383.458 472.034C378.996 472.034 375.383 471.904 373.106 471.794L375.843 459.296C395.559 457.142 427.122 446.278 427.122 446.278C425.629 412.96 439.057 395.554 439.057 395.554C439.057 395.554 445.439 407.024 449.331 420.607L439.789 452.188L441.892 460.365C426.227 470.385 399.406 472.034 383.458 472.034Z" fill="#E7266B"/>
<path d="M371.97 461.257L352.499 452.974L344.377 446.876C343.865 446.49 343.228 446.309 342.587 446.367L333.216 447.22C332.838 447.253 332.476 447.394 332.173 447.623C330.532 448.868 325.213 452.974 326.547 452.974C328.12 452.974 331.266 452.188 333.626 450.615C333.626 450.615 340.703 450.615 341.488 449.828C341.488 449.828 344.634 452.974 346.207 453.762C347.78 454.547 346.994 453.762 346.994 453.762L336.465 456.961C335.923 457.126 335.452 457.469 335.131 457.935C333.807 459.861 330.182 465.068 328.907 466.343C328.907 466.343 332.839 467.917 335.984 463.198C339.13 458.479 347.78 458.479 348.567 459.266C348.567 459.266 337.558 465.558 334.411 471.849C334.411 471.849 335.898 475.714 338.343 472.634C343.083 466.664 349.306 464.803 351.713 463.985L347.232 469.104C346.668 469.749 346.739 470.73 347.389 471.29L351.713 474.994C351.713 474.994 352.499 471.849 350.926 470.275L354.858 466.343C354.858 466.343 359.198 474.993 371.97 469.88V461.257Z" fill="#F9A87B"/>
<path d="M406.279 455.072C389.493 458.576 370.634 461.466 370.634 461.466L370.975 469.861C388.195 470.236 402.059 469.17 412.94 467.559C412.57 461.133 409.37 457.296 406.279 455.072" fill="#F9A87B"/>
<path d="M457.456 375.664C447.292 371.257 438.703 395.487 438.703 395.487C427.693 418.291 430.352 448.255 430.352 448.255C426.696 450.389 416.901 452.853 406.279 455.072C409.37 457.296 412.57 461.133 412.94 467.559C435.595 464.202 445.293 458.479 445.293 458.479C454.731 444.324 467.618 380.072 457.456 375.664Z" fill="#F9A87B"/>
<path d="M408.723 289.636C408.723 289.636 386.843 306.047 389.725 331.293C391.042 342.83 393.651 346.439 398.281 349.806C403.75 353.785 421.98 351.307 426.739 342.124L429.253 334.673C429.253 334.673 433.716 338.669 438.213 332.717C442.712 326.764 441.753 317.311 435.27 321.763L439.294 309.841L435.354 299.383L408.723 289.636" fill="#F9A87B"/>
<path d="M429.552 322.769C425.356 322.769 423.306 318.063 422.367 314.608C410.378 311.568 408.723 292.123 408.723 292.123C404.301 300.67 399.614 302.97 396.529 303.425C402.024 294.661 408.723 289.636 408.723 289.636L422.227 294.578C430.466 304.269 440.124 317.756 433.726 321.462C432.141 322.381 430.757 322.769 429.552 322.769Z" fill="#EB8D5F"/>
<path d="M411.884 306.201C410.035 303.509 409.201 300.534 408.879 297.873C411.302 307.086 424.138 313.506 424.138 313.506L424.112 313.833C418.587 312.534 414.481 309.978 411.884 306.201ZM439.057 300.578L423.143 292.621L400.766 287.151C400.766 287.151 373.416 296.599 385.849 302.069C396.757 306.869 406.133 295.971 408.267 293.229C408.047 296.61 408.35 301.931 411.472 306.48C414.153 310.38 418.387 313.012 424.076 314.333C423.803 322.056 433.089 323.451 433.089 323.451L437.066 320.467L445.024 317.981L439.057 300.578Z" fill="#6A6D73"/>
<path d="M424.138 284.39C424.138 284.39 430.105 281.68 436.073 293.615C436.073 293.615 443.532 311.019 436.073 326.933H434.581C434.581 326.933 437.563 297.544 424.138 284.39Z" fill="#33393F"/>
<path d="M443.034 328.425C443.034 332.27 439.917 335.386 436.073 335.386C432.227 335.386 429.11 332.27 429.11 328.425C429.11 324.579 432.227 321.462 436.073 321.462C439.917 321.462 443.034 324.579 443.034 328.425Z" fill="#E81380"/>
<path d="M411.18 322.698C410.781 324.297 410.026 325.484 409.492 325.352C408.96 325.219 408.851 323.815 409.249 322.216C409.649 320.616 410.404 319.429 410.936 319.562C411.469 319.696 411.578 321.099 411.18 322.698Z" fill="#33393F"/>
<path d="M397.78 320.051C397.645 321.694 397.092 322.989 396.544 322.944C395.996 322.9 395.663 321.531 395.798 319.889C395.931 318.247 396.486 316.951 397.033 316.997C397.58 317.042 397.914 318.41 397.78 320.051" fill="#33393F"/>
<path d="M396.291 340.278C396.291 340.278 405.48 342.904 412.701 335.683C412.701 335.683 412.701 344.218 400.886 345.531C400.886 345.531 398.917 345.531 396.291 340.278" fill="white"/>
<path d="M394.968 312.306C395.081 311.85 395.312 311.429 395.621 311.051C395.936 310.68 396.35 310.367 396.826 310.178C397.293 309.997 397.819 309.812 398.321 309.936C398.572 309.979 398.801 310.092 399.024 310.198C399.238 310.331 399.437 310.487 399.605 310.688L399.571 310.783C399.31 310.855 399.079 310.878 398.861 310.888C398.639 310.926 398.433 310.921 398.234 310.939C398.035 310.959 397.844 310.939 397.651 310.935C397.455 310.905 397.262 310.923 397.064 310.947C396.68 311.019 396.306 311.184 395.964 311.419C395.612 311.651 395.31 311.976 395.061 312.343L394.968 312.306" fill="#416BBD"/>
<path d="M415.017 312.306C414.906 311.85 414.675 311.429 414.366 311.051C414.051 310.68 413.637 310.367 413.16 310.178C412.693 309.997 412.166 309.812 411.665 309.936C411.415 309.979 411.184 310.092 410.963 310.198C410.749 310.331 410.551 310.487 410.381 310.688L410.416 310.783C410.678 310.855 410.906 310.878 411.124 310.888C411.346 310.926 411.554 310.921 411.751 310.939C411.952 310.959 412.143 310.939 412.334 310.935C412.532 310.905 412.725 310.923 412.921 310.947C413.307 311.019 413.679 311.184 414.022 311.419C414.374 311.651 414.676 311.976 414.924 312.343L415.017 312.306" fill="#416BBD"/>
<path d="M400.383 334.184C400.383 334.184 393.583 331.569 395.152 330.521C396.395 329.692 399.283 325.248 400.427 322.659C400.568 322.339 401.04 322.416 401.069 322.764C401.284 325.445 401.518 330.775 400.383 334.184" fill="#F68484"/>
<path d="M439.057 328.425C439.057 330.072 437.72 331.407 436.073 331.407C434.424 331.407 433.089 330.072 433.089 328.425C433.089 326.776 434.424 325.441 436.073 325.441C437.72 325.441 439.057 326.776 439.057 328.425Z" fill="#33393F"/>
<path d="M429.716 342.845H407.23V341.693H429.122C430.022 339.957 434.692 330.936 435.149 329.915L436.073 330.431C435.554 331.585 430.097 342.111 429.865 342.558L429.716 342.845" fill="#33393F"/>
<path d="M409.221 342.099C409.221 342.786 407.884 343.342 406.235 343.342C404.589 343.342 403.253 342.786 403.253 342.099C403.253 341.413 404.589 340.856 406.235 340.856C407.884 340.856 409.221 341.413 409.221 342.099Z" fill="#33393F"/>
<path d="M501.215 481.585H158.595C156.125 481.585 154.12 479.579 154.12 477.108C154.12 474.635 156.125 472.632 158.595 472.632H501.215C503.686 472.632 505.691 474.635 505.691 477.108C505.691 479.579 503.686 481.585 501.215 481.585Z" fill="#C0C9CF"/>
<path d="M180.823 363.748L183.74 448.921C183.922 454.203 188.256 458.393 193.543 458.393H316.026C321.575 458.393 326.019 453.794 325.83 448.247L322.912 363.076C322.731 357.794 318.395 353.604 313.108 353.604H190.625C185.078 353.604 180.633 358.202 180.823 363.748" fill="white"/>
<path d="M259.01 458.393H211.755C215.033 449.56 224.184 429.357 242.138 419.424L253.077 426.387L262.525 419.424C262.525 419.424 256.298 443.679 259.01 458.393ZM242.138 419.424C242.138 419.424 242.147 419.419 242.165 419.409C242.156 419.415 242.147 419.419 242.138 419.424ZM242.165 419.409L242.169 419.407C242.169 419.407 242.167 419.409 242.165 419.409ZM242.169 419.407C242.173 419.404 242.179 419.403 242.184 419.398C242.178 419.403 242.175 419.404 242.169 419.407ZM242.184 419.398C242.19 419.397 242.194 419.394 242.2 419.389C242.194 419.392 242.19 419.395 242.184 419.398ZM242.2 419.389C242.205 419.388 242.212 419.383 242.217 419.38C242.211 419.385 242.206 419.388 242.2 419.389ZM242.217 419.38C242.218 419.38 242.22 419.38 242.221 419.379C242.22 419.38 242.218 419.38 242.217 419.38ZM242.221 419.379C249.947 415.105 252.524 413.679 252.525 413.679C252.525 413.679 243.199 418.838 242.221 419.379" fill="#6A6D73" fill-opacity="0.07"/>
<path d="M242.137 419.424H262.525C262.525 419.424 231.694 469.152 259.292 472.632H216.777C216.777 472.632 208.322 452.742 242.137 419.424" fill="#D0D0D0"/>
<path d="M249.092 384.794C249.092 383.847 249.24 382.935 249.511 382.081C249.372 382.075 249.232 382.07 249.092 382.07C243.293 382.07 238.591 386.771 238.591 392.572C238.591 398.373 243.293 403.073 249.092 403.073C254.54 403.073 259.019 398.923 259.541 393.612C259.053 393.693 258.551 393.738 258.037 393.738C253.097 393.738 249.092 389.734 249.092 384.794Z" fill="#9B9B9B"/>
<path d="M257.708 225.116C254.539 282.178 205.712 325.864 148.65 322.695C91.5879 319.525 47.8995 270.698 51.0692 213.638C54.2388 156.575 103.066 112.887 160.128 116.058C217.188 119.226 260.878 168.054 257.708 225.116Z" fill="#7199D7"/>
<path d="M280.259 226.368C276.398 295.885 216.914 349.11 147.397 345.249C77.8797 341.386 24.656 281.902 28.5167 212.385C32.3781 142.867 91.8634 89.6434 161.38 93.5046C230.897 97.3674 284.12 156.851 280.259 226.368" fill="#FBF9EB"/>
<path d="M143.589 228.151C143.589 228.151 116.592 228.151 107.142 232.876C97.6942 237.599 92.969 249.748 94.9937 257.847C97.0191 265.946 86.2194 286.196 97.6943 296.994C107.998 306.692 116.125 305.505 119.629 304.183C120.027 304.034 120.366 303.882 120.641 303.744C123.341 302.394 120.641 339.516 120.641 339.516C120.641 339.516 188.811 343.565 192.86 339.516C196.91 335.466 198.259 250.423 188.811 240.975C179.361 231.525 153.038 228.151 153.038 228.151H143.589Z" fill="#4EB5A3"/>
<path d="M141.227 204.19L140.214 228.151L162.366 242.841C163.229 243.4 164.382 242.904 164.572 241.894L168.224 222.413L146.625 196.09L141.227 204.19" fill="#F8A38C"/>
<path d="M164.95 239.875C154.663 234.719 145.614 219.377 145.614 219.377C144.714 220.276 143.739 220.576 142.84 220.576C141.961 220.576 141.155 220.292 140.559 219.999L141.073 207.813L146.324 203.964L160.464 214.652C160.464 214.652 162.388 216.155 164.975 218.453L168.224 222.414L164.95 239.875" fill="#F38A72"/>
<path d="M142.576 195.417C153.376 194.741 154.726 177.193 154.726 175.169C154.726 173.143 171.6 167.743 175.649 169.769C179.503 171.695 180.525 184.064 180.712 184.954C186.644 181.363 191.845 168.548 189.147 160.994C185.773 151.545 181.723 154.921 179.024 156.945C176.325 158.97 176.325 149.521 162.15 141.422C147.976 133.322 164.176 150.871 147.302 149.521C130.429 148.17 129.078 165.044 129.078 165.044C120.304 165.044 114.229 172.468 120.979 179.892C127.728 187.317 122.328 187.991 120.979 194.741C120.275 198.261 127.098 199.762 133.789 200.392C135.726 197.81 138.537 195.668 142.576 195.417" fill="#205175"/>
<path d="M160.126 205.54C172.542 210.938 184.088 204.682 188.214 201.959C185.216 197.204 182.632 192.436 182.398 187.991C182.284 185.818 181.972 183.801 181.539 181.948L181.708 181.842C181.521 180.951 179.503 171.695 175.649 169.769C171.6 167.743 154.726 173.143 154.726 175.169C154.726 176.777 153.867 188.184 148.096 193.141C150.188 197.943 153.82 202.8 160.126 205.54" fill="#F8A38C"/>
<path d="M188.214 201.959C184.088 204.682 172.542 210.938 160.126 205.54C153.82 202.8 150.188 197.943 148.096 193.141C146.606 194.422 144.793 195.278 142.576 195.417C138.537 195.668 135.726 197.81 133.789 200.392C139.926 200.97 145.952 200.815 145.952 200.815C149.326 239.287 189.822 236.588 196.572 226.463C200.982 219.848 193.866 210.926 188.214 201.959Z" fill="#205175"/>
<path d="M121.799 191.236L152.797 192.957L151.914 208.875L120.914 207.152L121.799 191.236Z" fill="#650E2D"/>
<path d="M119.629 219.714C119.629 219.714 119.629 198.791 123.005 196.09C126.377 193.391 134.478 183.268 138.528 185.967C142.576 188.666 140.552 190.017 143.253 191.367C145.952 192.716 144.601 194.741 146.625 196.09C148.651 197.441 151.352 202.841 150.001 202.841C148.651 202.841 143.926 202.841 143.926 202.841C143.926 202.841 134.478 220.388 130.429 219.714L129.753 222.413H119.629V219.714" fill="#F8A38C"/>
<path d="M129.416 222.076C129.416 222.076 130.766 288.895 124.691 292.944C118.617 296.994 102.418 292.269 105.793 278.77C109.168 265.272 121.317 216.002 121.317 216.002L129.416 222.076Z" fill="#F8A38C"/>
<path d="M160.464 209.927C160.464 209.927 172.27 213.47 177.664 212.272C178.091 212.177 178.451 212.587 178.305 213C177.717 214.64 176.662 217.726 176.662 218.702C176.662 220.052 164.513 218.026 160.464 209.927Z" fill="#E7F7F9"/>
<path d="M173.69 189.679C173.69 189.679 189.456 199.159 185.182 203.242C180.909 207.324 177.6 206.678 177.6 206.678C177.6 206.678 172.087 192.086 173.69 189.679Z" fill="#F68793"/>
<path d="M160.464 193.053C160.396 192.216 160.634 191.361 161.14 190.612C161.65 189.867 162.581 189.304 163.549 189.25C164.528 189.159 165.375 189.549 166.112 189.959C166.456 190.208 166.798 190.455 167.096 190.743C167.378 191.054 167.656 191.358 167.886 191.705C167.473 191.596 167.104 191.444 166.739 191.301C166.376 191.155 166.001 191.063 165.659 190.919C164.952 190.736 164.266 190.525 163.645 190.595C163.029 190.639 162.467 190.87 161.932 191.313C161.404 191.762 160.934 192.369 160.464 193.053" fill="#A2524B"/>
<path d="M182.397 186.54C182.157 185.902 181.687 185.36 181.06 184.988C180.43 184.618 179.556 184.526 178.829 184.822C178.082 185.093 177.598 185.669 177.2 186.223C177.034 186.523 176.87 186.823 176.751 187.135C176.652 187.459 176.554 187.777 176.504 188.11C176.769 187.889 176.986 187.651 177.205 187.42C177.419 187.188 177.661 186.99 177.863 186.769C178.317 186.391 178.745 186 179.223 185.839C179.688 185.658 180.18 185.633 180.722 185.773C181.263 185.917 181.816 186.201 182.397 186.54Z" fill="#A2524B"/>
<path d="M156.937 187.825C157.098 186.737 157.584 185.633 158.215 184.743C159.945 182.308 162.761 182.002 165.517 182.558C166.795 182.816 167.072 180.81 165.799 180.552C162.538 179.895 159.153 180.403 156.94 183.079C155.917 184.317 155.168 185.946 154.931 187.544C154.741 188.832 156.746 189.115 156.937 187.825Z" fill="#205175"/>
<path d="M174.243 179.42C174.977 178.9 175.904 178.564 176.789 178.434C179.205 178.08 180.975 179.571 182.205 181.515C182.775 182.416 184.118 181.447 183.55 180.549C182.095 178.251 179.883 176.535 177.051 176.74C175.741 176.835 174.355 177.312 173.277 178.076C172.408 178.691 173.374 180.036 174.243 179.42" fill="#205175"/>
<path d="M387.223 115.789H572.342C575.578 115.789 578.199 118.41 578.199 121.644V168.348C578.199 170.292 577.233 172.109 575.622 173.199L546.016 193.201C544.479 194.241 542.49 192.773 543.028 190.998L548.949 171.458H387.223C383.99 171.458 381.368 168.836 381.368 165.602V121.644C381.368 118.41 383.99 115.789 387.223 115.789Z" fill="#7EAF3B"/>
<path d="M545.692 182.204L548.949 171.458H545.914L545.941 171.436H565.077L545.692 182.204" fill="#59861C"/>
<path d="M403.735 130.7H558.483C559.854 130.7 560.967 129.586 560.967 128.215C560.967 126.842 559.854 125.73 558.483 125.73H403.735C402.363 125.73 401.25 126.842 401.25 128.215C401.25 129.586 402.363 130.7 403.735 130.7Z" fill="white"/>
<path d="M403.735 143.292H558.483C559.854 143.292 560.967 142.178 560.967 140.807C560.967 139.434 559.854 138.322 558.483 138.322H403.735C402.363 138.322 401.25 139.434 401.25 140.807C401.25 142.178 402.363 143.292 403.735 143.292Z" fill="white"/>
<path d="M482.865 155.884H559.209C560.182 155.884 560.967 155.097 560.967 154.127V152.671C560.967 151.7 560.182 150.913 559.209 150.913H482.865C481.895 150.913 481.108 151.7 481.108 152.671V154.127C481.108 155.097 481.895 155.884 482.865 155.884Z" fill="white"/>
<path d="M310.787 577.703H349.331C350.737 577.703 351.878 578.844 351.878 580.249V600.564C351.878 601.409 351.459 602.2 350.759 602.673L337.882 611.375C337.211 611.827 336.346 611.188 336.581 610.415L339.157 601.917H310.787C309.381 601.917 308.242 600.776 308.242 599.369V580.249C308.242 578.844 309.381 577.703 310.787 577.703Z" fill="#B6D78A"/>
<path d="M585.115 200.414H608.615C609.474 200.414 610.169 201.109 610.169 201.967V214.354C610.169 214.869 609.913 215.351 609.487 215.641L601.635 220.946C601.226 221.221 600.7 220.831 600.84 220.359L602.412 215.178H585.115C584.256 215.178 583.561 214.483 583.561 213.626V201.967C583.561 201.109 584.256 200.414 585.115 200.414" fill="#B6D78A"/>
<path d="M515.093 181H313.685C310.168 181 307.315 183.851 307.315 187.37V238.182C307.315 240.298 308.365 242.276 310.118 243.462L342.328 265.223C344.001 266.353 346.166 264.757 345.58 262.825L339.139 241.566H515.093C518.611 241.566 521.462 238.714 521.462 235.195V187.37C521.462 183.851 518.611 181 515.093 181" fill="#FFBF00"/>
<path d="M342.682 253.259L321.592 241.543H342.412L342.439 241.566H339.139L342.682 253.259" fill="#F0A42F"/>
<path d="M497.129 197.222H328.765C327.273 197.222 326.062 196.012 326.062 194.518C326.062 193.025 327.273 191.815 328.765 191.815H497.129C498.621 191.815 499.832 193.025 499.832 194.518C499.832 196.012 498.621 197.222 497.129 197.222" fill="white"/>
<path d="M497.129 210.922H328.765C327.273 210.922 326.062 209.712 326.062 208.218C326.062 206.724 327.273 205.514 328.765 205.514H497.129C498.621 205.514 499.832 206.724 499.832 208.218C499.832 209.712 498.621 210.922 497.129 210.922" fill="white"/>
<path d="M411.035 224.623H327.974C326.918 224.623 326.062 223.765 326.062 222.711V221.127C326.062 220.07 326.918 219.214 327.974 219.214H411.035C412.09 219.214 412.946 220.07 412.946 221.127V222.711C412.946 223.765 412.09 224.623 411.035 224.623Z" fill="white"/>
<path d="M619.84 536.683C619.84 595.322 572.305 642.857 513.666 642.857C455.025 642.857 407.489 595.322 407.489 536.683C407.489 478.043 455.025 430.507 513.666 430.507C572.305 430.507 619.84 478.043 619.84 536.683Z" fill="#FCECBE"/>
<path d="M520.949 545.882C514.432 560.831 502.931 573.096 494.116 561.213C487.544 552.357 492.687 540.303 495.73 534.739C504.924 531.749 514.269 530.549 514.269 530.549H523.013C523.013 530.549 528.195 530.551 534.665 530.962C530.003 533.55 524.337 538.109 520.949 545.882Z" fill="#F8A38C"/>
<path d="M503.142 542.907L497.894 534.067C499.049 533.726 500.193 533.411 501.309 533.123L503.142 542.907" fill="#F38A72"/>
<path d="M481.165 542.417C484.493 539.088 490.083 536.576 495.73 534.739C492.687 540.303 487.545 552.357 494.116 561.214C502.931 573.096 514.432 560.831 520.949 545.882C524.337 538.109 530.003 533.55 534.665 530.962C542.401 531.456 551.978 532.54 556.741 534.921C565.485 539.295 569.857 550.538 567.984 558.031C566.109 565.527 576.103 584.264 565.485 594.258C555.95 603.232 548.429 602.132 545.186 600.909C544.817 600.773 544.503 600.631 544.25 600.504C541.75 599.255 544.25 633.608 544.25 633.608C544.25 633.608 481.165 637.354 477.419 633.608C473.669 629.858 472.421 551.162 481.165 542.417" fill="#FBC030"/>
<path d="M519.414 466.921C519.414 466.921 513.282 458.104 498.333 465.005C483.384 471.905 464.602 505.635 487.982 535.532C487.982 535.532 492.966 528.249 510.982 526.334C528.996 524.417 519.414 466.921 519.414 466.921Z" fill="#A55EB5"/>
<path d="M506 470.37L515.408 463.784C516.584 464.354 517.487 465.009 518.133 465.573L506 470.37" fill="#85449F"/>
<path d="M493.463 531.233C472.469 526.775 485.813 492.675 485.925 492.394C484.769 496.621 483.287 502.769 483.001 506.785C482.229 517.598 486.834 528.249 492.199 529.016C493.347 529.181 495.1 529.455 497.191 529.499C495.756 530.065 494.52 530.655 493.463 531.233Z" fill="#85449F"/>
<path d="M524.816 508.382L525.753 530.556L505.254 544.151C504.455 544.668 503.388 544.208 503.211 543.273L499.833 525.245L519.82 500.888L524.816 508.382" fill="#F8A38C"/>
<path d="M501.306 533.114L500.601 529.346C507.489 528.547 516.091 524.35 519.805 508.394L520.099 508.173L524.958 511.734L525.373 521.559C524.1 520.436 521.866 518.436 520.181 516.751C520.181 516.751 515.298 530.823 501.306 533.114" fill="#F38A72"/>
<path d="M483.001 506.785C483.482 500.036 487.336 487.279 487.355 487.701C487.527 486.878 489.394 478.313 492.962 476.528C496.708 474.655 512.323 479.651 512.323 481.524C512.323 483.015 513.118 493.571 518.459 498.158C519.838 499.343 521.517 500.134 523.566 500.262C527.304 500.496 529.907 502.478 531.699 504.868C526.02 505.401 520.444 505.26 520.444 505.26C515.582 532.849 497.484 529.771 492.199 529.016C486.834 528.249 482.229 517.599 483.001 506.785" fill="#F8A38C"/>
<path d="M527.611 503.207C526.544 503.207 525.257 503.081 523.725 502.809C505.326 499.563 501.832 482.786 500.544 476.751C506.081 477.907 512.323 480.34 512.323 481.524C512.323 483.015 513.118 493.571 518.459 498.158C519.838 499.343 521.517 500.134 523.566 500.262C526.222 500.428 528.305 501.477 529.931 502.927C529.316 503.109 528.549 503.207 527.611 503.207" fill="#F38A72"/>
<path d="M506.599 516.863C506.599 516.863 497.076 519.72 492.723 518.754C492.38 518.677 492.089 519.009 492.208 519.341C492.681 520.664 493.533 523.155 493.533 523.94C493.533 525.03 503.332 523.396 506.599 516.863" fill="#E7F7F9"/>
<path d="M506.599 503.254C506.652 502.575 506.459 501.887 506.052 501.282C505.641 500.681 504.89 500.227 504.11 500.184C503.318 500.111 502.636 500.426 502.043 500.756C501.765 500.957 501.487 501.157 501.248 501.388C501.022 501.638 500.797 501.884 500.61 502.164C500.945 502.075 501.242 501.955 501.537 501.838C501.829 501.719 502.131 501.646 502.408 501.531C502.979 501.382 503.531 501.212 504.031 501.27C504.529 501.305 504.984 501.492 505.413 501.849C505.84 502.211 506.218 502.699 506.599 503.254Z" fill="#A2524B"/>
<path d="M488.907 497.997C489.1 497.483 489.479 497.046 489.987 496.746C490.493 496.449 491.198 496.374 491.785 496.612C492.386 496.832 492.778 497.296 493.099 497.742C493.231 497.985 493.365 498.228 493.46 498.479C493.54 498.738 493.62 498.996 493.659 499.264C493.447 499.085 493.269 498.895 493.094 498.708C492.922 498.521 492.726 498.362 492.565 498.182C492.197 497.878 491.852 497.563 491.467 497.433C491.091 497.287 490.695 497.266 490.256 497.381C489.821 497.497 489.375 497.726 488.907 497.997" fill="#A2524B"/>
<path d="M499.866 476.121C499.866 476.121 506.382 498.734 524.973 500.651C543.563 502.568 509.832 473.053 509.832 473.053H491.051L485.299 487.236C485.299 487.236 496.416 483.786 499.866 476.121" fill="#A55EB5"/>
<path d="M499.832 473.053C500.248 473.053 518.264 463.088 525.931 465.388C533.596 467.688 550.845 491.834 548.545 515.984C546.247 540.131 513.666 536.683 513.666 536.683C513.666 536.683 530.531 514.834 515.197 489.919L503.698 479.187L499.832 473.053Z" fill="#A55EB5"/>
<path d="M531.886 491.25L515.316 514.721L527.369 523.229L543.938 499.757L531.886 491.25Z" fill="#650E2D"/>
<path d="M544.048 522.329C544.048 522.329 544.048 505.561 541.343 503.395C538.639 501.233 532.146 493.118 528.902 495.281C525.657 497.447 527.28 498.529 525.114 499.611C522.951 500.692 524.032 502.313 522.41 503.395C520.787 504.479 518.625 508.806 519.705 508.806C520.787 508.806 524.575 508.806 524.575 508.806C524.575 508.806 532.146 522.87 535.393 522.329L535.934 524.492H544.048V522.329" fill="#F8A38C"/>
<path d="M534.748 519.05C534.748 519.05 534.497 586.769 540.117 590.517C545.74 594.263 560.73 589.891 557.607 577.4C554.485 564.908 543.242 519.313 543.242 519.313L534.748 519.05Z" fill="#F8A38C"/>
<path d="M495.649 512.152L492.199 510.233C492.199 510.233 494.707 506.973 495.869 504.714C496.023 504.419 496.467 504.523 496.473 504.856C496.502 506.702 496.416 509.852 495.649 512.152" fill="#F68A91"/>
<path d="M508.993 499.896C508.191 497.313 506.027 495.161 503.419 494.478C503.061 494.384 503.213 493.83 503.572 493.923C506.378 494.659 508.685 496.971 509.546 499.742C509.656 500.098 509.101 500.249 508.993 499.896" fill="#A55EB5"/>
<path d="M494.604 491.343C492.298 491.093 489.866 492.059 488.436 493.878C488.24 494.128 487.856 493.819 488.051 493.569C489.59 491.611 492.196 490.585 494.674 490.855C494.99 490.889 494.919 491.379 494.604 491.343Z" fill="#A55EB5"/>
<path d="M498.909 473.053L498.898 473.873C498.897 474.17 498.901 474.465 498.91 474.76C498.927 475.351 498.97 475.938 499.025 476.524C499.141 477.695 499.325 478.854 499.581 479.996C500.092 482.279 500.895 484.489 501.945 486.558C503.003 488.627 504.33 490.543 505.852 492.267C507.391 493.979 509.121 495.501 510.982 496.818C509.216 495.373 507.612 493.744 506.221 491.961C504.847 490.165 503.691 488.214 502.814 486.153C501.941 484.089 501.325 481.927 500.993 479.729C500.827 478.631 500.731 477.523 500.698 476.418C500.685 475.867 500.682 475.314 500.707 474.765C500.719 474.491 500.732 474.216 500.752 473.942L500.824 473.053H498.909" fill="#A55EB5"/>
</svg>
